<svg width="119" height="119" viewBox="0 0 119 119" fill="none" xmlns="http://www.w3.org/2000/svg">
<g clip-path="url(#clip0_76_272)">
<rect width="119" height="119" rx="59" fill="white" fill-opacity="0.1"/>
<path d="M34.8839 60H32.9283L32.943 58.0225H34.8839C35.2501 58.0225 35.5479 57.9419 35.7774 57.7808C36.0118 57.6196 36.1852 57.3535 36.2975 56.9824C36.4098 56.6064 36.4659 56.106 36.4659 55.481V53.8477C36.4659 53.3789 36.4342 52.9834 36.3707 52.6611C36.3121 52.3389 36.2193 52.0801 36.0924 51.8848C35.9654 51.6895 35.797 51.5479 35.587 51.46C35.3771 51.3672 35.128 51.3208 34.8399 51.3208H32.8917V49.3359H34.8399C35.4649 49.3359 36.0313 49.4385 36.5392 49.6436C37.0519 49.8438 37.4937 50.1416 37.8648 50.5371C38.2359 50.9277 38.5216 51.4014 38.7218 51.958C38.922 52.5146 39.0221 53.1494 39.0221 53.8623V55.481C39.0221 56.189 38.922 56.8237 38.7218 57.3853C38.5216 57.9419 38.2359 58.4155 37.8648 58.8062C37.4986 59.1968 37.0616 59.4946 36.5538 59.6997C36.0509 59.8999 35.4942 60 34.8839 60ZM34.3932 49.3359V60H31.8883V49.3359H34.3932ZM42.0332 49.3359V60H39.5356V49.3359H42.0332ZM47.1903 57.1655C47.1903 56.9995 47.1732 56.8506 47.1391 56.7188C47.1098 56.582 47.0487 56.4551 46.956 56.3379C46.8681 56.2207 46.7338 56.1035 46.5531 55.9863C46.3725 55.8643 46.1308 55.7373 45.828 55.6055C45.4472 55.4492 45.0736 55.2734 44.7074 55.0781C44.3412 54.8779 44.0116 54.646 43.7187 54.3823C43.4306 54.1138 43.1986 53.8013 43.0229 53.4448C42.8471 53.0835 42.7592 52.6636 42.7592 52.1851C42.7592 51.7261 42.8471 51.3135 43.0229 50.9473C43.2035 50.5762 43.4501 50.2612 43.7626 50.0024C44.08 49.7388 44.4535 49.5386 44.8832 49.4019C45.3129 49.2603 45.7816 49.1895 46.2895 49.1895C46.9633 49.1895 47.5565 49.3262 48.0692 49.5996C48.5868 49.8682 48.9896 50.2515 49.2777 50.7495C49.5707 51.2427 49.7172 51.8262 49.7172 52.5H47.2196C47.2196 52.2314 47.1854 51.9946 47.1171 51.7896C47.0487 51.5845 46.9413 51.4233 46.7948 51.3062C46.6532 51.189 46.4652 51.1304 46.2309 51.1304C46.0209 51.1304 45.8427 51.1792 45.6962 51.2769C45.5546 51.3745 45.4472 51.5063 45.3739 51.6724C45.3007 51.8335 45.2641 52.0117 45.2641 52.207C45.2641 52.3682 45.3007 52.5146 45.3739 52.6465C45.4472 52.7734 45.5473 52.8931 45.6742 53.0054C45.8061 53.1177 45.9574 53.2251 46.1283 53.3276C46.3041 53.4302 46.4921 53.5303 46.6923 53.6279C47.1757 53.8086 47.6029 54.0112 47.974 54.2358C48.35 54.4556 48.6649 54.707 48.9188 54.9902C49.1728 55.2686 49.3632 55.5859 49.4901 55.9424C49.622 56.2988 49.6879 56.7017 49.6879 57.1509C49.6879 57.6294 49.6098 58.0542 49.4535 58.4253C49.3021 58.7964 49.08 59.1113 48.787 59.3701C48.494 59.624 48.14 59.8169 47.725 59.9487C47.3148 60.0806 46.851 60.1465 46.3334 60.1465C45.8598 60.1465 45.3935 60.0781 44.9345 59.9414C44.4804 59.7998 44.0678 59.585 43.6967 59.2969C43.3305 59.0039 43.0375 58.6304 42.8178 58.1763C42.598 57.7173 42.4882 57.1729 42.4882 56.543H45.0077C45.0077 56.8555 45.0321 57.1191 45.081 57.334C45.1298 57.5488 45.2055 57.7222 45.308 57.854C45.4154 57.981 45.5521 58.0737 45.7182 58.1323C45.8842 58.186 46.0893 58.2129 46.3334 58.2129C46.558 58.2129 46.7313 58.1665 46.8534 58.0737C46.9804 57.9761 47.0683 57.8491 47.1171 57.6929C47.1659 57.5317 47.1903 57.356 47.1903 57.1655ZM55.0428 56.3892H57.5477C57.5525 57.1899 57.3963 57.8735 57.0789 58.4399C56.7664 59.0015 56.3245 59.4263 55.7532 59.7144C55.1819 60.0024 54.513 60.1465 53.7464 60.1465C53.1263 60.1465 52.577 60.0391 52.0984 59.8242C51.6199 59.6094 51.2171 59.2969 50.8899 58.8867C50.5628 58.4766 50.3162 57.981 50.1502 57.3999C49.9842 56.814 49.9012 56.1499 49.9012 55.4077V53.9209C49.9012 53.1836 49.9891 52.522 50.1648 51.936C50.3455 51.3501 50.5994 50.8521 50.9266 50.4419C51.2586 50.0317 51.659 49.7192 52.1277 49.5044C52.6014 49.2896 53.1287 49.1821 53.7098 49.1821C54.5252 49.1821 55.2137 49.3359 55.7752 49.6436C56.3416 49.9463 56.7762 50.3857 57.0789 50.9619C57.3816 51.5332 57.5428 52.2192 57.5623 53.02H55.0574C55.0818 52.5562 55.0525 52.1924 54.9695 51.9287C54.8865 51.6602 54.74 51.4722 54.5301 51.3647C54.325 51.2524 54.0516 51.1963 53.7098 51.1963C53.4754 51.1963 53.2776 51.2427 53.1165 51.3354C52.9554 51.4282 52.826 51.582 52.7283 51.7969C52.6307 52.0068 52.5599 52.2852 52.5159 52.6318C52.472 52.9785 52.45 53.4033 52.45 53.9062V55.4077C52.45 55.9204 52.4671 56.3501 52.5013 56.6968C52.5354 57.0435 52.5989 57.3242 52.6917 57.5391C52.7894 57.749 52.9212 57.9004 53.0872 57.9932C53.2581 58.0859 53.4778 58.1323 53.7464 58.1323C54.0296 58.1323 54.2713 58.0859 54.4715 57.9932C54.6717 57.8955 54.823 57.7222 54.9256 57.4731C55.0281 57.2192 55.0672 56.8579 55.0428 56.3892ZM65.51 53.8696V55.481C65.51 56.2476 65.4147 56.9214 65.2243 57.5024C65.0339 58.0835 64.7629 58.5718 64.4113 58.9673C64.0598 59.3579 63.6423 59.6533 63.1589 59.8535C62.6804 60.0488 62.1481 60.1465 61.5622 60.1465C60.9714 60.1465 60.4343 60.0488 59.9509 59.8535C59.4675 59.6533 59.05 59.3579 58.6984 58.9673C58.3469 58.5718 58.0759 58.0835 57.8854 57.5024C57.695 56.9214 57.5998 56.2476 57.5998 55.481V53.8696C57.5998 53.103 57.695 52.4268 57.8854 51.8408C58.0759 51.2549 58.3444 50.7666 58.6911 50.376C59.0427 49.9854 59.4602 49.6899 59.9436 49.4897C60.427 49.2896 60.9641 49.1895 61.5549 49.1895C62.1408 49.1895 62.6755 49.2896 63.1589 49.4897C63.6472 49.6899 64.0646 49.9854 64.4113 50.376C64.758 50.7666 65.0266 51.2549 65.217 51.8408C65.4123 52.4268 65.51 53.103 65.51 53.8696ZM62.9685 55.481V53.855C62.9685 53.3765 62.9392 52.9688 62.8806 52.6318C62.822 52.2949 62.7341 52.0215 62.6169 51.8115C62.4997 51.6016 62.3532 51.4478 62.1774 51.3501C62.0017 51.2524 61.7941 51.2036 61.5549 51.2036C61.3059 51.2036 61.0935 51.2524 60.9177 51.3501C60.7419 51.4478 60.5954 51.6016 60.4782 51.8115C60.3659 52.0215 60.2829 52.2949 60.2292 52.6318C60.1755 52.9688 60.1486 53.3765 60.1486 53.855V55.481C60.1486 55.9546 60.1755 56.3599 60.2292 56.6968C60.2829 57.0288 60.3659 57.3022 60.4782 57.5171C60.5954 57.7319 60.7443 57.8906 60.925 57.9932C61.1057 58.0908 61.3181 58.1396 61.5622 58.1396C61.7966 58.1396 62.0017 58.0908 62.1774 57.9932C62.3581 57.8906 62.5046 57.7319 62.6169 57.5171C62.7341 57.3022 62.822 57.0288 62.8806 56.6968C62.9392 56.3599 62.9685 55.9546 62.9685 55.481ZM69.2755 57.4878L70.9161 49.3359H73.7286L70.7696 60H68.9679L69.2755 57.4878ZM67.8985 49.3359L69.5465 57.4878L69.8688 60H68.045L65.1007 49.3359H67.8985ZM79.9258 58.0225V60H75.2603V58.0225H79.9258ZM76.1318 49.3359V60H73.627V49.3359H76.1318ZM79.3179 53.5693V55.481H75.2603V53.5693H79.3179ZM79.9478 49.3359V51.3208H75.2603V49.3359H79.9478ZM80.0585 49.3359H83.706C84.4188 49.3359 85.0365 49.458 85.559 49.7021C86.0814 49.9463 86.4818 50.3076 86.7602 50.7861C87.0434 51.2646 87.185 51.8555 87.185 52.5586C87.185 53.1689 87.1068 53.6792 86.9506 54.0894C86.7992 54.4995 86.5844 54.8389 86.3061 55.1074C86.0277 55.3711 85.7006 55.5884 85.3246 55.7593L84.5116 56.2354H81.6479L81.6332 54.2505H83.6474C83.8769 54.2505 84.0673 54.1919 84.2187 54.0747C84.37 53.9575 84.4823 53.7915 84.5556 53.5767C84.6337 53.3569 84.6728 53.0957 84.6728 52.793C84.6728 52.4854 84.6361 52.2217 84.5629 52.002C84.4896 51.7822 84.3822 51.6138 84.2406 51.4966C84.1039 51.3794 83.9257 51.3208 83.706 51.3208H82.5634V60H80.0585V49.3359ZM84.7826 60L82.893 55.2832L85.5443 55.2686L87.4706 59.8901V60H84.7826Z" fill="white"/>
<path d="M52.6192 66.0469H53.4053L56.42 74.7969L59.4483 66.0469H60.2208L56.7276 76H56.1261L52.6192 66.0469ZM52.38 66.0469H53.0636L53.1593 71.666V76H52.38V66.0469ZM59.7901 66.0469H60.4805V76H59.7012V71.666L59.7901 66.0469ZM67.2284 75.2686V76H62.58V75.2686H67.2284ZM62.7919 66.0469V76H62.0126V66.0469H62.7919ZM66.6474 70.5039V71.2354H62.58V70.5039H66.6474ZM67.1943 66.0469V66.7783H62.58V66.0469H67.1943Z" fill="white"/>
</g>
<defs>
<clipPath id="clip0_76_272">
<rect width="119" height="119" rx="59" fill="white"/>
</clipPath>
</defs>
</svg>
