<?xml version="1.0" encoding="UTF-8"?>
<svg id="Calque_1" data-name="Calque 1" xmlns="http://www.w3.org/2000/svg" viewBox="0 0 27.43 27.43">
  <path d="M20.12,19.32c0-.38-.18-.68-.54-.91-2.3-1.37-4.96-2.05-7.98-2.05-1.58,0-3.29.2-5.13.61-.5.11-.75.42-.75.93,0,.24.08.44.24.62.16.17.37.26.63.26.06,0,.28-.05.66-.14,1.57-.32,3.02-.48,4.34-.48,2.69,0,5.05.61,7.09,1.84.23.13.42.2.59.2.23,0,.42-.08.59-.24s.25-.37.25-.62ZM21.84,15.48c0-.48-.21-.84-.62-1.09-2.82-1.68-6.08-2.52-9.79-2.52-1.82,0-3.62.25-5.41.75-.57.15-.86.54-.86,1.14,0,.3.1.55.31.76.21.21.46.31.76.31.08,0,.3-.05.66-.14,1.45-.39,2.95-.59,4.48-.59,3.32,0,6.23.74,8.71,2.21.29.15.51.23.68.23.3,0,.55-.1.76-.31.21-.21.31-.46.31-.76ZM23.77,11.05c0-.56-.24-.98-.71-1.25-1.5-.87-3.24-1.53-5.23-1.97-1.99-.45-4.03-.67-6.12-.67-2.43,0-4.6.28-6.5.84-.27.08-.5.24-.69.46-.18.22-.28.51-.28.87s.12.68.37.93.55.38.92.38c.13,0,.37-.05.71-.14,1.58-.44,3.41-.66,5.48-.66,1.89,0,3.74.2,5.53.61,1.79.4,3.3.97,4.53,1.7.25.14.49.21.71.21.35,0,.65-.12.9-.37s.38-.55.38-.92ZM25.59,6.84c1.23,2.1,1.84,4.39,1.84,6.88s-.61,4.78-1.84,6.88c-1.23,2.1-2.89,3.76-4.99,4.99-2.1,1.23-4.4,1.84-6.88,1.84s-4.78-.61-6.88-1.84c-2.1-1.23-3.76-2.89-4.99-4.99-1.23-2.1-1.84-4.4-1.84-6.88s.61-4.78,1.84-6.88c1.23-2.1,2.89-3.76,4.99-4.99,2.1-1.23,4.4-1.84,6.88-1.84s4.78.61,6.88,1.84c2.1,1.23,3.76,2.89,4.99,5Z"/>
</svg>